<!--?xml version="1.0" standalone="no"?-->
              <svg id="sw-js-blob-svg" viewBox="0 0 100 100" xmlns="http://www.w3.org/2000/svg" version="1.1">
                    <defs> 
                        <linearGradient id="sw-gradient" x1="0" x2="1" y1="1" y2="0">
                            <stop id="stop1" stop-color="rgba(201.797, 250.674, 255, 1)" offset="0%"></stop>
                            <stop id="stop2" stop-color="rgba(128.364, 180.348, 255, 1)" offset="100%"></stop>
                        </linearGradient>
                    </defs>
                <path fill="url(#sw-gradient)" d="M21.2,-25.1C27.3,-20.2,32,-13.3,34.2,-5.4C36.4,2.6,36.1,11.7,32.2,18.6C28.2,25.5,20.5,30.3,12.4,32.7C4.2,35.1,-4.3,35.1,-11.2,32.1C-18.2,29,-23.6,22.9,-29.5,15.6C-35.3,8.4,-41.5,0,-41.5,-8.6C-41.5,-17.1,-35.2,-25.8,-27.2,-30.4C-19.3,-35,-9.6,-35.6,-1,-34.4C7.6,-33.1,15.1,-30.1,21.2,-25.1Z" width="100%" height="100%" transform="translate(50 50)" stroke-width="0" style="transition: all 0.3s ease 0s;"></path>
              </svg>