<!--?xml version="1.0" standalone="no"?-->
              <svg id="sw-js-blob-svg" viewBox="0 0 100 100" xmlns="http://www.w3.org/2000/svg" version="1.1">
                    <defs> 
                        <linearGradient id="sw-gradient" x1="0" x2="1" y1="1" y2="0">
                            <stop id="stop1" stop-color="rgba(201.797, 250.674, 255, 1)" offset="0%"></stop>
                            <stop id="stop2" stop-color="rgba(128.364, 180.348, 255, 1)" offset="100%"></stop>
                        </linearGradient>
                    </defs>
                <path fill="url(#sw-gradient)" d="M22,-25.4C29.7,-19.7,38,-13.9,39.2,-7C40.4,0,34.4,8.2,29.1,16.3C23.9,24.4,19.3,32.5,13,34.1C6.6,35.7,-1.4,30.9,-7.9,26.5C-14.3,22,-19,17.9,-22.9,12.5C-26.8,7.2,-29.8,0.7,-29.6,-6.1C-29.5,-12.9,-26.1,-20,-20.6,-26.1C-15.1,-32.2,-7.6,-37.3,-0.2,-37.1C7.1,-36.8,14.3,-31.2,22,-25.4Z" width="100%" height="100%" transform="translate(50 50)" stroke-width="0" style="transition: all 0.3s ease 0s;"></path>
              </svg>