<!--?xml version="1.0" standalone="no"?-->
              <svg id="sw-js-blob-svg" viewBox="0 0 100 100" xmlns="http://www.w3.org/2000/svg" version="1.1">
                    <defs> 
                        <linearGradient id="sw-gradient" x1="0" x2="1" y1="1" y2="0">
                            <stop id="stop1" stop-color="rgba(248, 237.756, 55, 1)" offset="0%"></stop>
                            <stop id="stop2" stop-color="rgba(251, 209.509, 31, 1)" offset="100%"></stop>
                        </linearGradient>
                    </defs>
                <path fill="url(#sw-gradient)" d="M7.8,-6C14.7,-9.5,28.1,-16.7,31.3,-16.4C34.4,-16,27.2,-8,20.8,-3.7C14.4,0.6,8.7,1.2,8.6,6.7C8.4,12.3,13.9,22.8,13.4,29C12.9,35.2,6.4,36.9,0.9,35.4C-4.6,33.8,-9.3,28.9,-10.3,23.1C-11.4,17.3,-8.9,10.5,-6.7,6.5C-4.5,2.4,-2.6,1.2,-7.5,-2.8C-12.3,-6.8,-23.8,-13.6,-25.9,-17.4C-28,-21.2,-20.6,-22,-14.7,-19.1C-8.8,-16.3,-4.4,-9.7,-2,-6.3C0.4,-2.9,0.9,-2.5,7.8,-6Z" width="100%" height="100%" transform="translate(50 50)" stroke-width="0" style="transition: all 0.3s ease 0s;"></path>
              </svg>